<svg width="20" height="14" viewBox="0 0 20 14" fill="none" xmlns="http://www.w3.org/2000/svg">
<g id="Vector">
<path fill-rule="evenodd" clip-rule="evenodd" d="M0 7C0 6.4477 0.44772 6 1 6H19C19.5523 6 20 6.4477 20 7C20 7.5523 19.5523 8 19 8H1C0.44772 8 0 7.5523 0 7Z" fill="#1D2749"/>
<path fill-rule="evenodd" clip-rule="evenodd" d="M7.70711 0.29289C8.0976 0.68342 8.0976 1.31658 7.70711 1.70711L2.41421 7L7.70711 12.2929C8.0976 12.6834 8.0976 13.3166 7.70711 13.7071C7.31658 14.0976 6.68342 14.0976 6.29289 13.7071L0.29289 7.7071C-0.09763 7.3166 -0.09763 6.6834 0.29289 6.2929L6.29289 0.29289C6.68342 -0.09763 7.31658 -0.09763 7.70711 0.29289Z" fill="#1D2749"/>
</g>
</svg>
