<svg width="16" height="16" viewBox="0 0 16 16" fill="none" xmlns="http://www.w3.org/2000/svg">
<g id="Vector">
<path fill-rule="evenodd" clip-rule="evenodd" d="M1.1059 1.10566C1.39879 0.812763 1.87367 0.812763 2.16656 1.10566L14.8945 13.8336C15.1874 14.1265 15.1874 14.6013 14.8945 14.8942C14.6016 15.1871 14.1267 15.1871 13.8338 14.8942L1.1059 2.16632C0.813007 1.87342 0.813007 1.39855 1.1059 1.10566Z" fill="#221B38"/>
<path fill-rule="evenodd" clip-rule="evenodd" d="M14.8945 1.10566C15.1874 1.39855 15.1874 1.87342 14.8945 2.16632L2.16656 14.8942C1.87367 15.1871 1.39879 15.1871 1.1059 14.8942C0.813007 14.6013 0.813007 14.1265 1.1059 13.8336L13.8338 1.10566C14.1267 0.812763 14.6016 0.812763 14.8945 1.10566Z" fill="#221B38"/>
</g>
</svg>
