<svg width="24" height="24" viewBox="0 0 24 24" fill="none" xmlns="http://www.w3.org/2000/svg">
<g id="Icon/ help-line" clip-path="url(#clip0_3783_1431)">
<path id="Vector" d="M11.9999 1.33337C9.89026 1.33337 7.82797 1.95896 6.07384 3.13103C4.31972 4.3031 2.95254 5.96901 2.14521 7.91808C1.33787 9.86716 1.12664 12.0119 1.53821 14.081C1.94979 16.1501 2.96569 18.0508 4.45745 19.5425C5.94921 21.0343 7.84983 22.0502 9.91896 22.4618C11.9881 22.8733 14.1328 22.6621 16.0819 21.8548C18.031 21.0474 19.6969 19.6802 20.8689 17.9261C22.041 16.172 22.6666 14.1097 22.6666 12C22.6666 9.17106 21.5428 6.45796 19.5424 4.45757C17.542 2.45718 14.8289 1.33337 11.9999 1.33337ZM11.9999 21.3334C10.154 21.3334 8.34946 20.786 6.8146 19.7604C5.27974 18.7349 4.08347 17.2772 3.37705 15.5718C2.67063 13.8663 2.4858 11.9897 2.84593 10.1792C3.20606 8.36871 4.09497 6.70567 5.40026 5.40038C6.70555 4.09509 8.36859 3.20617 10.1791 2.84604C11.9896 2.48592 13.8662 2.67075 15.5716 3.37717C17.2771 4.08358 18.7347 5.27986 19.7603 6.81472C20.7859 8.34958 21.3333 10.1541 21.3333 12C21.3333 14.4754 20.3499 16.8494 18.5996 18.5997C16.8492 20.35 14.4753 21.3334 11.9999 21.3334Z" fill="#1D2749"/>
<path id="Vector_2" d="M12.1934 5.94672C11.471 5.93478 10.7548 6.0821 10.0957 6.37822C9.43666 6.67434 8.8509 7.11198 8.38008 7.66005C8.31467 7.72067 8.26209 7.79379 8.22544 7.8751C8.1888 7.9564 8.16884 8.04423 8.16675 8.13338C8.1667 8.21564 8.18321 8.29706 8.21527 8.37281C8.24734 8.44856 8.29431 8.51708 8.3534 8.5743C8.41249 8.63153 8.48249 8.67628 8.55922 8.7059C8.63596 8.73552 8.71787 8.7494 8.80008 8.74672C8.9762 8.74235 9.1446 8.67357 9.27341 8.55338C9.62972 8.13584 10.0723 7.80044 10.5706 7.57027C11.0689 7.3401 11.6112 7.22062 12.1601 7.22005C13.7334 7.22005 14.7134 8.23338 14.7134 9.49338V9.52672C14.7134 11.0001 13.5401 11.8201 11.6867 11.9601C11.6117 11.9629 11.5381 11.9817 11.4708 12.015C11.4035 12.0483 11.344 12.0954 11.2961 12.1533C11.2483 12.2112 11.2132 12.2786 11.1932 12.351C11.1732 12.4233 11.1688 12.4991 11.1801 12.5734C11.1801 12.5734 11.1801 14.1201 11.1801 14.4067C11.1967 14.5717 11.2742 14.7246 11.3974 14.8356C11.5207 14.9465 11.6809 15.0075 11.8467 15.0067H11.9201C12.0851 14.9901 12.238 14.9126 12.349 14.7894C12.4599 14.6661 12.5209 14.5059 12.5201 14.3401V12.9667C14.5201 12.6867 16.1401 11.6334 16.1401 9.44672V9.41338C16.1201 7.41338 14.5601 5.94672 12.1934 5.94672Z" fill="#1D2749"/>
<path id="Vector_3" d="M11.8534 18.3C12.3136 18.3 12.6867 17.9269 12.6867 17.4666C12.6867 17.0064 12.3136 16.6333 11.8534 16.6333C11.3931 16.6333 11.02 17.0064 11.02 17.4666C11.02 17.9269 11.3931 18.3 11.8534 18.3Z" fill="#1D2749"/>
</g>
<defs>
<clipPath id="clip0_3783_1431">
<rect width="24" height="24" fill="white"/>
</clipPath>
</defs>
</svg>
