<svg width="24" height="24" viewBox="0 0 24 24" fill="none" xmlns="http://www.w3.org/2000/svg">
<g id="Icon/Notifications">
<g id="Vector">
<path fill-rule="evenodd" clip-rule="evenodd" d="M7.75 18C7.75 17.5858 8.08579 17.25 8.5 17.25H15.5C15.9142 17.25 16.25 17.5858 16.25 18V18.5C16.25 20.8442 14.3442 22.75 12 22.75C9.65579 22.75 7.75 20.8442 7.75 18.5V18ZM9.26128 18.75C9.38808 20.1492 10.5685 21.25 12 21.25C13.4315 21.25 14.6119 20.1492 14.7387 18.75H9.26128Z" fill="#221B38"/>
<path fill-rule="evenodd" clip-rule="evenodd" d="M4.25 9C4.25 4.71579 7.71579 1.25 12 1.25C16.2842 1.25 19.75 4.71579 19.75 9V11.88C19.75 13.1515 20.0519 14.4173 20.6214 15.5658L20.6219 15.5667L21.6708 17.6646C21.7871 17.8971 21.7746 18.1732 21.638 18.3943C21.5013 18.6154 21.2599 18.75 21 18.75H3C2.74007 18.75 2.49867 18.6154 2.36201 18.3943C2.22536 18.1732 2.21293 17.8971 2.32918 17.6646L3.37811 15.5667L3.37861 15.5657C3.94807 14.4172 4.25 13.1514 4.25 11.88V9ZM12 2.75C8.54421 2.75 5.75 5.54421 5.75 9V11.88C5.75 13.3882 5.39211 14.882 4.72189 16.2333L4.72082 16.2354L4.21353 17.25H19.7865L19.2792 16.2354L19.2781 16.2333C18.6079 14.882 18.25 13.3882 18.25 11.88V9C18.25 5.54421 15.4558 2.75 12 2.75Z" fill="#221B38"/>
</g>
</g>
</svg>
