<svg width="18" height="19" viewBox="0 0 18 19" fill="none" xmlns="http://www.w3.org/2000/svg">
<g id="Utilities/Search">
<path id="Vector (Stroke)" fill-rule="evenodd" clip-rule="evenodd" d="M0.9375 7.625C0.9375 4.20773 3.70773 1.4375 7.125 1.4375C10.5422 1.4375 13.3125 4.20773 13.3125 7.625C13.3125 9.13108 12.7744 10.5115 11.88 11.5845L16.8977 16.6023C17.1174 16.8219 17.1174 17.1781 16.8977 17.3977C16.6781 17.6174 16.3219 17.6174 16.1023 17.3977L11.0845 12.38C10.0115 13.2744 8.63108 13.8125 7.125 13.8125C3.70773 13.8125 0.9375 11.0422 0.9375 7.625ZM10.7467 11.1622C10.7314 11.1746 10.7165 11.188 10.7023 11.2023C10.688 11.2165 10.6746 11.2314 10.6622 11.2467C9.74964 12.1381 8.50147 12.6875 7.125 12.6875C4.32906 12.6875 2.0625 10.4209 2.0625 7.625C2.0625 4.82906 4.32906 2.5625 7.125 2.5625C9.92092 2.5625 12.1875 4.82906 12.1875 7.625C12.1875 9.00147 11.6381 10.2496 10.7467 11.1622Z" fill="#1D2749"/>
</g>
</svg>
