<svg width="32" height="32" viewBox="0 0 32 32" fill="none" xmlns="http://www.w3.org/2000/svg">
<g id="ubrr">
<path d="M0 12.8C0 8.31958 0 6.07937 0.871948 4.36808C1.63893 2.86278 2.86278 1.63893 4.36808 0.871948C6.07937 0 8.31958 0 12.8 0H19.2C23.6804 0 25.9206 0 27.6319 0.871948C29.1372 1.63893 30.3611 2.86278 31.1281 4.36808C32 6.07937 32 8.31958 32 12.8V19.2C32 23.6804 32 25.9206 31.1281 27.6319C30.3611 29.1372 29.1372 30.3611 27.6319 31.1281C25.9206 32 23.6804 32 19.2 32H12.8C8.31958 32 6.07937 32 4.36808 31.1281C2.86278 30.3611 1.63893 29.1372 0.871948 27.6319C0 25.9206 0 23.6804 0 19.2V12.8Z" fill="#E9ECEE"/>
<path id="logo" fill-rule="evenodd" clip-rule="evenodd" d="M22.2149 22.2551C23.7511 21.9606 24.916 20.5976 24.916 18.9657C24.916 18.0701 24.565 17.2576 23.9959 16.6548C23.7443 16.3892 23.4471 16.1633 23.12 15.9914C22.6093 15.7078 22.526 15.1478 22.8571 14.6383C23.0437 14.3613 23.1784 14.0453 23.2454 13.7068C23.2774 13.5428 23.2948 13.3737 23.2948 13.2007C23.2948 11.9066 22.3415 10.8335 21.1076 10.6606C21.0766 10.6602 21.0456 10.66 21.0145 10.66C20.9737 10.66 20.9332 10.6612 20.8928 10.6623C20.8718 10.6612 20.8506 10.66 20.8284 10.66H17.422V18.7585C17.422 21.9241 14.7069 24.5 11.387 24.5C8.09453 24.5 5.42123 21.9357 5.375 18.8067C6.50044 20.8376 8.6841 22.2649 11.203 22.335C11.2684 22.3377 11.3349 22.3399 11.4013 22.3399C13.4979 22.3399 15.1945 20.7329 15.1945 18.7585V8.5H20.8284C23.1461 8.5 25.009 10.1317 25.4269 12.3149C24.8012 11.7691 24.5714 11.0326 24.5714 11.0326C24.5714 11.0326 24.7944 11.7632 25.4269 12.3149C25.4831 12.6019 25.5123 12.898 25.5123 13.2007C25.5123 13.7661 25.2668 14.3307 25.0809 14.8334C26.4169 15.8311 27.1058 17.2707 27.125 18.9001C27.125 18.9818 27.125 19.0807 27.125 19.1667C27.07 22.1569 24.5468 24.4573 21.5268 24.4573H17.9419C17.3297 24.4573 16.8328 23.9733 16.8328 23.377C16.8328 22.7808 17.3297 22.2969 17.9419 22.2969H21.5268C21.6501 22.2969 21.7712 22.2896 21.8905 22.2767C21.9995 22.2721 22.1078 22.2649 22.2149 22.2551ZM5.375 18.7332V11.5256C5.375 9.85694 6.76766 8.5 8.48033 8.5H10.6824C11.2947 8.5 11.7909 8.98323 11.7909 9.5802C11.7909 10.1764 11.2947 10.66 10.6824 10.66H8.48033C8.39804 10.66 8.3164 10.6628 8.23553 10.6682C7.8648 10.772 7.59241 11.1054 7.59241 11.5003V18.7332C7.59241 20.6448 9.19231 22.2363 11.1981 22.3334C8.6792 22.2635 6.50145 20.8376 5.37601 18.8067C5.37601 18.7807 5.375 18.7597 5.375 18.7332Z" fill="#A7B1BA"/>
</g>
</svg>
