<svg width="21" height="15" viewBox="0 0 21 15" fill="none" xmlns="http://www.w3.org/2000/svg">
<g id="Wifi">
<path id="Wifi_2" fill-rule="evenodd" clip-rule="evenodd" d="M10.3336 3.57394C12.5583 3.57403 14.698 4.41173 16.3104 5.91388C16.4318 6.02985 16.6258 6.02839 16.7454 5.9106L17.906 4.76277C17.9666 4.70302 18.0003 4.6221 17.9998 4.5379C17.9993 4.4537 17.9646 4.37317 17.9033 4.31413C13.6714 0.33979 6.99508 0.33979 2.76316 4.31413C2.70186 4.37313 2.66708 4.45363 2.66651 4.53783C2.66595 4.62203 2.69964 4.70298 2.76015 4.76277L3.9211 5.9106C4.0406 6.02856 4.23482 6.03003 4.35616 5.91388C5.96872 4.41163 8.10863 3.57393 10.3336 3.57394ZM10.332 7.29949C11.5557 7.29942 12.7358 7.75602 13.6429 8.58058C13.7656 8.6976 13.9588 8.69507 14.0784 8.57486L15.239 7.3977C15.3001 7.33596 15.334 7.25219 15.3332 7.16515C15.3323 7.07811 15.2967 6.99506 15.2343 6.93457C12.472 4.3552 8.19428 4.3552 5.432 6.93457C5.3696 6.99506 5.334 7.07815 5.33319 7.16522C5.33237 7.25229 5.3664 7.33604 5.42764 7.3977L6.58789 8.57486C6.70749 8.69507 6.90076 8.6976 7.02345 8.58058C7.92994 7.75656 9.10906 7.3 10.332 7.29949ZM12.6664 10.0231C12.6682 10.1085 12.6339 10.1909 12.5716 10.2508L10.5569 12.2419C10.4978 12.3004 10.4173 12.3334 10.3333 12.3334C10.2492 12.3334 10.1687 12.3004 10.1097 12.2419L8.09456 10.2508C8.03231 10.1909 7.99806 10.1085 7.99991 10.023C8.00175 9.93756 8.03953 9.85664 8.10431 9.79935C9.39101 8.7336 11.2755 8.7336 12.5622 9.79935C12.6269 9.85668 12.6647 9.93763 12.6664 10.0231Z" fill="#1D2749"/>
</g>
</svg>
